<svg xmlns="http://www.w3.org/2000/svg" width="224" height="32" fill="none"><path d="M62.8 15.492l-8.056-1.937-1.317-.542-36.95.3V31.14l46.4.078-.078-15.725z" fill="#fff"/><g fill="#b6bdd3"><path d="M47.772 29.513c.387-1.472.232-2.8-.465-3.796-.62-.93-1.704-1.472-3.02-1.472l-24.942-.3c-.155 0-.3-.077-.387-.232s-.078-.3-.078-.465c.078-.232.3-.465.542-.465l25.175-.3c3.02-.155 6.197-2.556 7.36-5.5l1.472-3.718c.078-.155.078-.3.078-.465A16.29 16.29 0 0 0 37.547 0a16.35 16.35 0 0 0-15.492 11.077c-1.394-1.084-3.253-1.627-5.2-1.394-3.486.3-6.197 3.098-6.584 6.584a9.06 9.06 0 0 0 .155 2.556C4.78 18.978.288 23.626.288 29.28c0 .542.077 1.007.077 1.55 0 .232.232.387.465.387h46.012c.232 0 .542-.155.62-.465l.3-1.24zm7.9-16.035h-.697c-.155 0-.3.155-.387.3l-1.007 3.408c-.387 1.472-.232 2.8.465 3.796.62.93 1.704 1.472 3.02 1.472l5.345.3c.155 0 .3.078.387.232s.078.3.078.465c-.078.232-.3.465-.542.465l-5.5.3c-3.02.155-6.197 2.556-7.36 5.5l-.387 1.007c-.078.155.077.387.3.387h18.978c.232 0 .465-.155.465-.387.3-1.162.542-2.4.542-3.718-.078-7.436-6.197-13.556-13.7-13.556z"/><path fill-rule="evenodd" d="M220.85 21.984a1.22 1.22 0 0 0 1.239 1.239c.62 0 1.162-.542 1.24-1.24a1.22 1.22 0 1 0-2.478 0zm.232.078c0-.542.465-1.007 1.007-1.007s.93.387 1.007 1.007c0 .542-.465 1.007-1.007 1.007s-1.007-.465-1.007-1.007zm1.627.62h-.3l-.233-.465h-.387v.465h-.232v-1.317h.62c.3 0 .465.155.465.465 0 .155-.077.387-.3.387l.388.465zm-.3-.93c0 .155-.155.232-.233.232v-.078h-.387v-.387h.387c.155 0 .233.077.233.232z"/><path d="M91.442 20.458h3.176v8.598h5.5v2.79h-8.676V20.458z"/><path fill-rule="evenodd" d="M109.49 20.226c-3.486 0-6.12 2.634-6.12 5.964 0 3.253 2.556 5.8 6.12 5.8 3.485 0 6.12-2.634 6.12-5.887s-2.634-5.887-6.12-5.887zm-.078 2.866c1.782 0 2.943 1.394 2.943 3.098 0 1.627-1.16 3.02-2.943 3.02-1.704 0-2.866-1.472-2.866-3.098s1.162-3.02 2.866-3.02z"/><path d="M119.406 26.8v-6.352h3.176v6.274c0 1.627.852 2.4 2.092 2.4s2.09-.775 2.09-2.324v-6.43h3.176v6.274c0 3.64-2.092 5.267-5.345 5.267-3.176.078-5.2-1.55-5.2-5.112z"/><path fill-rule="evenodd" d="M139.236 20.458h-4.416v11.31h4.338c4.106 0 6.507-2.48 6.507-5.732s-2.4-5.577-6.43-5.577zm3.098 5.732c0 1.86-1.24 2.866-3.098 2.866v.077h-1.317v-5.8h1.317c1.86 0 3.098 1.084 3.098 2.866z"/><path d="M150.158 20.458h9.063v2.8h-5.887v1.86h5.345v2.634h-5.345v4.105h-3.176v-11.39zm13.478 0h3.176v8.598h5.5v2.8h-8.675V20.458z"/><path d="M183.544 20.38h-3.02l-4.88 11.464h3.253l.775-2.014h4.415l.852 2.014h3.408l-4.802-11.464zm-1.55 3.718l1.24 3.253h-2.557l1.317-3.253zm15.802-3.64h-5.422v11.3h3.176V28.36h1.394l2.324 3.408h3.64l-2.7-3.95c1.394-.62 2.323-1.782 2.323-3.486 0-1.084-.3-2.014-1.007-2.634-.774-.775-2.014-1.24-3.718-1.24zm1.55 4.105c0 .775-.62 1.317-1.704 1.317v.077h-2.1v-2.7h2.1c1.085 0 1.704.387 1.704 1.317z" fill-rule="evenodd"/><path d="M207.015 20.458h9.14v2.7h-5.964v1.704h5.422v2.48h-5.422v1.782h6.042v2.7h-9.218V20.458zM84.55 27.507c-.465 1.007-1.394 1.704-2.634 1.704-1.704 0-2.866-1.394-2.866-3.098 0-1.627 1.162-3.02 2.866-3.02 1.317 0 2.246.775 2.7 1.86h3.33c-.542-2.7-2.944-4.725-5.964-4.725-3.486 0-6.12 2.634-6.12 5.887S78.43 32 81.993 32c3.02 0 5.345-1.936 5.964-4.57H84.55v.078z"/></g></svg>