<svg xmlns="http://www.w3.org/2000/svg" width="112" height="30" fill="#b6bdd3"><path fill-rule="evenodd" d="M15.84 0c-8.264 0-15 6.718-15 15s6.718 15 15 15 15-6.718 15-15-6.718-15-15-15zm-.773 17.485H7.594l7.472-14.54v14.54zm1.527-5.006v14.54l7.454-14.54h-7.454z"/><path d="M39.564 24.902l-1.233-1.95c2.117-1.288 2.834-2.32 2.834-4.27V7.436H38.68V5.282h5.3V18.1c0 3.276-.957 5.098-4.417 6.792zm22.178-7.675c0 1.086.773 1.196 1.288 1.196s1.25-.166 1.84-.35v2.006c-.8.258-1.638.46-2.78.46-1.38 0-2.982-.515-2.982-2.926v-5.9h-1.454V9.7H59.1v-3h2.632v3h3.313v2.024h-3.313v5.503z"/><path d="M67.245 9.663v16.233h.018v-.018h2.632v-5.614c.68.147 1.344.258 2.172.258 3.405 0 5.466-2.337 5.466-5.9 0-3.6-1.896-5.245-4.27-5.245-1.38 0-2.503.48-3.497 1.252v-.975h-2.522zm2.65 3.074c.92-.8 1.896-1.178 2.67-1.178 1.454 0 2.227 1.012 2.227 3.276 0 2.448-1.067 3.626-2.926 3.626a9.83 9.83 0 0 1-1.969-.202v-5.52zM85.4 20.3h2.54v-6.8c0-3.055-1.656-4.086-4.233-4.086-1.307 0-2.9.276-4.03.68l.22 2.117c1.25-.515 2.797-.718 3.46-.718 1.344 0 1.914.46 1.914 1.896v.313l-2.32.313c-1.638.22-3.957.736-3.957 3.46 0 2.043 1.472 3.037 2.853 3.037 1.583 0 2.632-.718 3.497-1.38h.055V20.3zm-2.337-4.6l2.172-.35v2.172c-.718.515-1.546.975-2.32.975-.718 0-1.196-.48-1.196-1.343 0-.976.68-1.362 1.344-1.454z" fill-rule="evenodd"/><path d="M98.736 19.95c-1.086.368-2.06.607-3.294.607-3.957 0-5.522-2.264-5.522-5.558 0-3.46 2.172-5.613 5.687-5.613a8.44 8.44 0 0 1 3 .515v2.227c-.773-.294-1.896-.607-2.982-.607-1.6 0-2.982.865-2.982 3.313 0 2.724 1.38 3.552 3.1 3.552.828 0 1.748-.166 2.982-.663v2.227zm4.987-5.686l3.718-4.546h3.442l-4.3 5.025 4.693 5.577h-3.44l-4.086-5.024v5.043h-2.632V5.32h2.632v8.963h-.037v-.018z"/><path fill-rule="evenodd" d="M55.65 19.962l.037-.01v.018h-.037v-.007zm-3.883.596c1.368 0 2.52-.18 3.883-.596v-2.2c-1.123.405-2.098.663-3.184.663-1.97 0-3.294-.534-3.35-2.853h6.8l.024-.267.068-1.316c0-2.245-1.178-4.583-4.546-4.583-3.405 0-5.172 2.632-5.172 5.52 0 3.94 2.098 5.632 5.466 5.632zm-.33-9.166c1.417 0 1.84 1.123 1.84 2.41h-4.123c.166-1.472.957-2.41 2.282-2.41z"/></svg>