<svg xmlns="http://www.w3.org/2000/svg" width="119" height="38" fill="#b6bdd3"><path fill-rule="evenodd" d="M71.098 20.932c2.57 1.285 3.9 2.82 3.957 4.55-.224 2.896-2.163 4.56-5.674 4.56a10.68 10.68 0 0 1-3.27-.685c.238-.803.416-1.638.527-2.484h.03c.413 1.556 1.502 2.375 3.243 2.436 1.76-.063 2.714-.903 2.84-2.505 0-1.14-1.01-2.18-3.01-3.088-2.39-1.1-3.6-2.645-3.6-4.556.1-2.836 1.71-4.297 4.88-4.464 1.26.053 2.36.357 3.275.9l-.366.955-.273.86c-.62-1.26-1.534-1.895-2.722-1.895-1.747.063-2.67.928-2.67 2.504 0 .977.924 1.93 2.83 2.912zm-39.785-5.79v13.316c0 .125.097.23.22.242.702.058 1.48.058 2.3 0l2.49-.293c-.037.204-.055.423-.055.66a5.05 5.05 0 0 0 .06.714h-7.925V15.144l.587.07c.352.06.713.062.928.004l.713-.003.68-.074zm9.5.728c-.423.06-.704.06-.907.003h-.713l-.59-.07V29.78h2.76V15.8c-.16.012-.34.035-.55.07zm2.773.5a4.44 4.44 0 0 0-.04-.591H53.92c-.04.198-.04.4-.006.596-.033.248-.033.47-.001.662a8.56 8.56 0 0 1-.895-.078l-2.603-.167c-.134 0-.242.108-.242.242V29.78h-2.676V17.044c0-.133-.108-.242-.243-.242-.84 0-1.937.084-3.242.25h-.46a5.62 5.62 0 0 0 .036-.673zm12.53-.59V29.78h7.56a4.8 4.8 0 0 1-.056-.673c0-.218.017-.422.047-.61l-1.703.183c-.715.058-1.7.085-2.93.085-.134 0-.242-.11-.242-.243v-5.408c0-.133.108-.242.242-.242h2.023l2.16.146-.04-.178-.007-.973a.21.21 0 0 1 .013-.078l.017-.056a16.67 16.67 0 0 1-2.142.125h-2.023c-.134 0-.242-.11-.242-.242v-4.575c0-.133.108-.242.242-.242 1.492 0 3.06.097 4.66.29-.05-.22-.076-.433-.076-.63 0-.235.025-.46.077-.674h-7.58zm23.56 7.68c-.042.003-.103.014-.154.064-.044.044-.07.104-.07.166v6.083h-2.778V15.786h5.004c2.865 0 4.285 1.095 4.338 3.345.02 1.225-.316 2.2-1 2.896-.94.96-2.59 1.445-4.897 1.445-.142 0-.283-.002-.444-.005zm.314-.68a2.37 2.37 0 0 1-.339-.024.23.23 0 0 1-.199-.228v-5.9c0-.128.105-.232.232-.232h1.328c1.364.183 2.107 1.235 2.225 3.125-.118 1.676-.818 2.702-2.078 3.062-.434.13-.828.195-1.17.195zm17.138-7V29.78h7.572c-.036-.254-.056-.49-.056-.684a3.63 3.63 0 0 1 .049-.619l-1.714.186-2.923.084c-.128 0-.232-.104-.232-.23v-5.4c0-.127.104-.23.232-.23h2.243l2.312.147-.044-.192-.007-.97c0-.027.003-.052.012-.074l.024-.07c-.7.083-1.473.126-2.297.126h-2.243c-.128 0-.232-.104-.232-.23v-4.57c0-.127.104-.23.232-.23 1.495 0 3.065.1 4.666.29a2.81 2.81 0 0 1-.078-.641c0-.24.025-.468.08-.684H97.13zm9.517 13.994h4.6c4.764-.27 7.316-2.768 7.585-7.425-.217-4.144-2.268-6.297-6.266-6.57l-5.93.001V29.78zm9.085-7.413c0-3.846-1.728-5.798-5.132-5.798h-1.03c-.126 0-.23.105-.23.232v11.964c0 .126.105.23.23.23h.91c1.74 0 3.068-.568 3.947-1.687.865-1.104 1.305-2.766 1.305-4.943zM87.568 29.78V15.786h7.593a2.93 2.93 0 0 0-.079.684c0 .2.026.415.078.64a39.23 39.23 0 0 0-4.667-.291c-.127 0-.23.104-.23.23v4.57c0 .127.105.23.23.23h2.244c.826 0 1.596-.043 2.294-.126-.006.022-.013.046-.02.07s-.013.047-.013.074l.008.97.043.192-2.312-.147h-2.244c-.127 0-.23.104-.23.23v5.4c0 .126.105.23.23.23 1.247 0 2.204-.027 2.925-.084.615-.042 1.19-.106 1.713-.186a3.65 3.65 0 0 0-.049.619 5.04 5.04 0 0 0 .056.684h-7.57z"/><path d="M23.137 22.567l-6.9-6.9-2.94 3.73 3.17 3.17c.292.293.292.77 0 1.063l-.917.916.646.98c.142.286.177.957-.228 1.264L8.76 32.324V38c.001 0 14.377-14.37 14.377-14.37.292-.293.292-.77 0-1.063zM7.1 23.435c-.3-.3-.3-.77 0-1.06l.918-.918-.627-.9a.99.99 0 0 1 .208-1.341l7.208-5.533L14.812 8l-.004-.002.005-.008L.44 22.374a.75.75 0 0 0 .001 1.063l6.9 6.9 2.94-3.73-3.17-3.17z"/><path fill-rule="evenodd" d="M18.055 11.508c.158-.123.273-.174.394-.174.147 0 .287.09.353.22.117.24-.053.457-.137.564l-.002.003-6.316 8.017a.31.31 0 0 0-.009.307l3.526 5.113c.166.24.165.875-.186 1.14L5.522 34.495c-.142.11-.256.174-.414.175-.137-.01-.273-.1-.332-.22-.118-.24.055-.464.138-.57l6.314-8.013c.058-.077.064-.23.012-.3L7.715 20.5c-.264-.375-.182-.906.182-1.185l10.157-7.797zm.723.06c-.06-.123-.193-.206-.33-.206-.116 0-.226.05-.378.168L7.914 19.326a.85.85 0 0 0-.177 1.149l3.525 5.07a.34.34 0 0 1-.013.34l-6.314 8.013c-.08.103-.247.317-.135.543a.39.39 0 0 0 .311.204c.148-.001.254-.06.396-.17l10.155-7.796c.33-.25.346-.866.18-1.105l-3.526-5.113c-.06-.084-.054-.258.01-.338l6.316-8.017c.087-.11.245-.313.136-.54z"/><path d="M15.498 25.652c.082.124.156.593-.05.748L5.29 34.197c-.086.066-.14.097-.165.095-.035.002-.01-.06.084-.18l6.313-8.01a.68.68 0 0 0 .024-.756l-3.524-5.072c0 0 7.393 5.255 7.475 5.38z"/><path d="M15.498 25.652l-3.47-4.992a.68.68 0 0 1 .022-.753l6.315-8.016c.094-.12.118-.18.084-.18-.025 0-.08.03-.165.096L8.127 19.604c-.204.157-.252.46-.104.67l7.475 5.38z"/></svg>