<svg xmlns="http://www.w3.org/2000/svg" width="133" height="30" fill="#b6bdd3"><path fill-rule="evenodd" d="M76.685 11.81H71.48v.552c1.628 0 1.9.35 1.9 2.414v3.722c0 2.064-.26 2.442-1.9 2.442-1.25-.174-2.093-.843-3.257-2.123l-1.337-1.454c1.803-.32 2.762-1.454 2.762-2.734 0-1.6-1.366-2.82-3.925-2.82h-5.117v.552c1.628 0 1.9.35 1.9 2.414v3.722c0 2.064-.262 2.442-1.9 2.442v.552h5.786v-.552c-1.628 0-1.9-.378-1.9-2.442V17.45h.494l3.228 4.04h8.46c4.158 0 5.96-2.21 5.96-4.856s-1.803-4.827-5.96-4.827zm-12.183 4.74V12.68h1.192c1.308 0 1.9.9 1.9 1.948 0 1.018-.582 1.92-1.9 1.92h-1.192 0zM76.57 20.6h.204c3.024 0 3.576-2.2 3.576-3.983 0-1.716-.552-3.925-3.576-3.925h-1.396v6.3c0 1.338.145 1.6 1.192 1.6z"/><path d="M44.41 17.624l2.006-5.932c.582-1.715.32-2.2-1.54-2.2V8.9h5.466v.582c-1.832 0-2.268.436-2.995 2.56l-3.315 9.944h-.378l-2.966-9.1-3.024 9.1h-.378L34.06 12.04c-.698-2.123-1.163-2.56-2.85-2.56V8.9h6.455v.582c-1.716 0-2.18.407-1.57 2.2l1.948 5.932L40.98 8.9h.553l2.878 8.723z"/><path d="M48.48 16.635c0 2.88 2.617 5.234 5.815 5.234s5.815-2.355 5.815-5.234c0-2.85-2.617-5.205-5.815-5.205s-5.815 2.355-5.815 5.205zm2.2 0c0-1.9.93-4.303 3.605-4.303 2.704 0 3.635 2.413 3.635 4.303 0 1.92-.93 4.304-3.635 4.304-2.675 0-3.605-2.384-3.605-4.303zM89.827 21.5v-.582c-1.948 0-2.297-.494-2.297-3.402v-1.424h1.658c2.995 0 4.653-1.57 4.653-3.576 0-2.065-1.658-3.606-4.653-3.606h-6.02v.582c1.948 0 2.297.465 2.297 3.373v4.652c0 2.908-.35 3.402-2.297 3.402v.582h6.66zM87.53 9.947h1.657c1.63 0 2.384 1.163 2.384 2.56 0 1.367-.756 2.5-2.384 2.5H87.53v-5.06zm26.14 9.333l.145-.523h.437l-.175 2.733h-11.95L98.9 17.45h-.494v1.046c0 2.064.262 2.442 1.9 2.442v.552H94.5v-.552c1.628 0 1.9-.378 1.9-2.442v-3.722c0-2.065-.262-2.414-1.9-2.414v-.552h5.117c2.56 0 3.925 1.22 3.925 2.82 0 1.28-.96 2.413-2.762 2.734l1.338 1.454c1.146 1.26 1.983 1.926 3.204 2.112 1.283-.068 1.506-.544 1.506-2.432v-3.722c0-2.065-.262-2.414-1.9-2.414v-.552h8.548l.204 2.733h-.465l-.146-.552c-.262-.96-.58-1.3-2.646-1.3h-1.6v3.256c2.268 0 2.443-.203 2.443-1.716h.552v4.333h-.552c0-1.512-.175-1.715-2.443-1.715v1.337c0 2.064.262 2.413 1.773 2.413h.408c2.064 0 2.384-.35 2.646-1.3zm-15.265-6.6v3.867h1.192c1.308 0 1.9-.9 1.9-1.92 0-1.047-.582-1.948-1.9-1.948h-1.192z" fill-rule="evenodd"/><path d="M119.718 21.87c-1.163 0-2.18-.6-2.617-1-.146.146-.407.582-.465 1h-.553v-4.012h.582c.232 1.92 1.57 3.053 3.285 3.053.93 0 1.687-.523 1.687-1.395 0-.756-.67-1.338-1.86-1.9l-1.658-.785c-1.163-.553-2.035-1.512-2.035-2.8 0-1.396 1.308-2.588 3.1-2.588.96 0 1.774.35 2.268.756.146-.116.3-.436.378-.786h.553v3.43h-.6c-.204-1.367-.96-2.5-2.5-2.5-.814 0-1.57.465-1.57 1.192 0 .756.6 1.163 2.007 1.803l1.6.785c1.396.67 1.948 1.745 1.948 2.617 0 1.832-1.6 3.1-3.547 3.1zm8.955 0c-1.163 0-2.18-.6-2.617-1-.146.146-.407.582-.465 1h-.553v-4.012h.582c.232 1.92 1.57 3.053 3.286 3.053.93 0 1.686-.523 1.686-1.395 0-.756-.67-1.338-1.86-1.9l-1.657-.785c-1.164-.553-2.036-1.512-2.036-2.8 0-1.396 1.3-2.588 3.1-2.588.96 0 1.774.35 2.268.756.146-.116.3-.436.378-.786h.553v3.43h-.6c-.203-1.367-.96-2.5-2.5-2.5-.814 0-1.57.465-1.57 1.192 0 .756.6 1.163 2.007 1.803l1.6.785c1.396.67 1.948 1.745 1.948 2.617 0 1.832-1.6 3.1-3.547 3.1zM2.132 15c0 5.093 2.96 9.495 7.252 11.58L3.246 9.763A12.82 12.82 0 0 0 2.132 15zm21.555-.65c0-1.6-.57-2.692-1.06-3.55-.652-1.06-1.264-1.958-1.264-3.018 0-1.183.897-2.284 2.16-2.284.057 0 .1.007.167.01a12.82 12.82 0 0 0-8.689-3.378c-4.495 0-8.45 2.307-10.75 5.8l.828.015c1.346 0 3.43-.163 3.43-.163.694-.04.775.978.083 1.06 0 0-.697.082-1.473.123l4.686 13.938 2.816-8.446-2.005-5.493c-.693-.04-1.35-.123-1.35-.123-.693-.04-.612-1.1.08-1.06 0 0 2.125.163 3.4.163 1.346 0 3.43-.163 3.43-.163.694-.04.776.978.082 1.06 0 0-.698.082-1.473.123l4.65 13.833 1.284-4.3c.556-1.78.98-3.058.98-4.16zm-8.46 1.775l-3.86 11.22a12.87 12.87 0 0 0 3.635.524c1.5 0 2.936-.26 4.273-.73a1.12 1.12 0 0 1-.092-.177l-3.956-10.836zm11.064-7.3a9.88 9.88 0 0 1 .087 1.323c0 1.306-.244 2.774-.978 4.6l-3.93 11.364c3.825-2.23 6.4-6.375 6.4-11.123a12.8 12.8 0 0 0-1.576-6.174z"/><path fill-rule="evenodd" d="M0 15A15.02 15.02 0 0 1 15 0c8.27 0 15 6.73 15 15s-6.73 15-15 15A15.02 15.02 0 0 1 0 15zm.688 0c0 7.892 6.42 14.313 14.312 14.313S29.312 22.892 29.312 15 22.892.688 15 .688.688 7.108.688 15z"/></svg>